<?xml version="1.0" encoding="utf-8"?>
<!-- Generator: Adobe Illustrator 17.0.0, SVG Export Plug-In . SVG Version: 6.00 Build 0)  -->
<!DOCTYPE svg PUBLIC "-//W3C//DTD SVG 1.1//EN" "http://www.w3.org/Graphics/SVG/1.1/DTD/svg11.dtd">
<svg version="1.1" id="Capa_1" xmlns="http://www.w3.org/2000/svg" xmlns:xlink="http://www.w3.org/1999/xlink" x="0px" y="0px"
	 width="250.22px" height="251.106px" viewBox="0 0 250.22 251.106" enable-background="new 0 0 250.22 251.106"
	 xml:space="preserve">
<g>
	<g>
		<circle fill="#834B2F" cx="124.955" cy="125.675" r="120.955"/>
		<path fill="#834B2F" d="M124.955,125.675"/>
	</g>
	<path fill-rule="evenodd" clip-rule="evenodd" fill="#FFFFFF" d="M75.503,53.481c-14.635,0.313-22.609,8.287-23.921,23.921v96.815
		c-0.172,17.833,7.99,25.995,24.486,24.486h99.074c15.246,0.304,23.22-7.67,23.921-23.921V77.402
		c-0.257-17.443-8.23-25.417-23.921-23.921H75.503z"/>
	<g>
		<circle fill="#834B2F" cx="125.569" cy="125.061" r="25.296"/>
		<path fill="#834B2F" d="M125.569,125.061"/>
	</g>
	<g>
		<polygon fill="#834B2F" points="157.003,70.35 181.071,70.35 181.071,94.419 157.003,94.419 157.003,70.35 		"/>
		<path fill="#834B2F" d="M169.037,82.384"/>
	</g>
	<path fill-rule="evenodd" clip-rule="evenodd" fill="#834B2F" d="M88.481,111.121v27.444c5.217,33.712,70.363,34.633,75.403,0
		l0.921-26.217h18.721v59.928c-0.796,6.934-4.684,10.822-11.663,11.663H78.353c-8.225-1.269-12.054-5.097-11.485-11.485v-61.64
		L88.481,111.121z"/>
</g>
</svg>
