<?xml version="1.0" encoding="utf-8"?>
<!-- Generator: Adobe Illustrator 17.0.0, SVG Export Plug-In . SVG Version: 6.00 Build 0)  -->
<!DOCTYPE svg PUBLIC "-//W3C//DTD SVG 1.1//EN" "http://www.w3.org/Graphics/SVG/1.1/DTD/svg11.dtd">
<svg version="1.1" id="Capa_1" xmlns="http://www.w3.org/2000/svg" xmlns:xlink="http://www.w3.org/1999/xlink" x="0px" y="0px"
	 width="250.22px" height="251.106px" viewBox="0 0 250.22 251.106" enable-background="new 0 0 250.22 251.106"
	 xml:space="preserve">
<g>
	<circle fill="#D61E1E" cx="125.11" cy="125.553" r="120.955"/>
	<path fill="#D61E1E" d="M125.11,125.553"/>
</g>
<path fill="#FFFFFF" stroke="#FFFFFF" stroke-width="5" stroke-miterlimit="10" d="M184.685,65.98H65.537
	c-10.966,0-19.858,8.89-19.858,19.856v79.432c0,10.967,8.892,19.857,19.858,19.857h119.147c10.964,0,19.857-8.889,19.857-19.857
	V85.837C204.541,74.871,195.649,65.98,184.685,65.98z M151.998,118.968l42.034-36.02c0.291,0.932,0.58,1.862,0.58,2.888v79.432
	c0,0.688-0.262,1.299-0.399,1.949L151.998,118.968z M184.685,75.91c0.657,0,1.238,0.252,1.859,0.378l-61.433,52.658L63.676,76.287
	c0.622-0.126,1.202-0.378,1.862-0.378H184.685z M56,167.208c-0.135-0.65-0.393-1.251-0.393-1.939V85.837
	c0-1.026,0.297-1.956,0.589-2.888l42.018,36.012L56,167.208z M65.537,175.195c-1.003,0-1.916-0.29-2.833-0.57l43.051-49.199
	l16.127,13.817c0.926,0.807,2.08,1.203,3.228,1.203c1.148,0,2.301-0.396,3.228-1.203l16.125-13.817l43.051,49.199
	c-0.913,0.28-1.826,0.57-2.831,0.57H65.537z"/>
</svg>
