<?xml version="1.0" encoding="utf-8"?>
<!-- Generator: Adobe Illustrator 17.0.0, SVG Export Plug-In . SVG Version: 6.00 Build 0)  -->
<!DOCTYPE svg PUBLIC "-//W3C//DTD SVG 1.1//EN" "http://www.w3.org/Graphics/SVG/1.1/DTD/svg11.dtd">
<svg version="1.1" id="Capa_1" xmlns="http://www.w3.org/2000/svg" xmlns:xlink="http://www.w3.org/1999/xlink" x="0px" y="0px"
	 width="104.667px" height="104px" viewBox="0 0 104.667 104" enable-background="new 0 0 104.667 104" xml:space="preserve">
<g>
	<path fill="#0090B8" d="M103.324,52.043c0,28.012-22.704,50.715-50.712,50.715c-28.009,0-50.713-22.703-50.713-50.715
		c0-28.006,22.704-50.711,50.713-50.711C80.62,1.332,103.324,24.037,103.324,52.043z"/>
	<path fill="#FFFFFF" d="M82.497,33.506c-2.199,0.976-4.564,1.635-7.043,1.931c2.532-1.518,4.478-3.92,5.393-6.784
		c-2.367,1.405-4.99,2.427-7.786,2.977c-2.239-2.385-5.427-3.873-8.953-3.873c-6.773,0-12.264,5.491-12.264,12.263
		c0,0.963,0.108,1.897,0.317,2.794C41.969,42.304,32.935,37.422,26.885,30c-1.053,1.814-1.658,3.92-1.658,6.167
		c0,4.254,2.164,8.01,5.452,10.206c-2.008-0.061-3.899-0.617-5.553-1.535v0.155c0,5.941,4.227,10.899,9.836,12.025
		c-1.028,0.279-2.115,0.433-3.23,0.433c-0.789,0-1.56-0.079-2.309-0.223c1.561,4.872,6.089,8.417,11.455,8.518
		c-4.194,3.288-9.481,5.25-15.23,5.25c-0.989,0-1.964-0.06-2.923-0.172c5.426,3.475,11.872,5.507,18.801,5.507
		c22.555,0,34.889-18.683,34.889-34.89c0-0.53-0.013-1.059-0.033-1.588C78.773,38.126,80.849,35.967,82.497,33.506z"/>
</g>
</svg>
