<?xml version="1.0" encoding="utf-8"?>
<!-- Generator: Adobe Illustrator 17.0.0, SVG Export Plug-In . SVG Version: 6.00 Build 0)  -->
<!DOCTYPE svg PUBLIC "-//W3C//DTD SVG 1.1//EN" "http://www.w3.org/Graphics/SVG/1.1/DTD/svg11.dtd">
<svg version="1.1" id="Capa_1" xmlns="http://www.w3.org/2000/svg" xmlns:xlink="http://www.w3.org/1999/xlink" x="0px" y="0px"
	 width="612px" height="187.579px" viewBox="0 0 612 187.579" enable-background="new 0 0 612 187.579" xml:space="preserve">
<path fill="#FFFFFF" d="M96.801,133.66l-3.793,0.271c-54.914,0-83.154,0.061-84.719,0.181c-2.228,0-3.568-0.07-4.019-0.212
	c-0.452-0.141-0.677-0.522-0.677-1.143c0.181-0.662,1.685-3.387,4.516-8.174c2.83-4.787,8.52-13.503,17.069-26.147l23.481-34.773
	c7.163-10.536,12.07-17.612,14.721-21.225c7.827-10.658,12.522-17.973,14.088-21.947c-10.658-0.481-18.966-0.722-24.927-0.722
	c-9.032,0-15.714,0.677-20.049,2.032c-4.335,1.355-7.962,3.357-10.882,6.006c-2.921,2.65-6.487,7.045-10.701,13.187
	c-2.048,3.012-3.402,4.516-4.064,4.516c-0.964,0-1.445-0.542-1.445-1.626c0-0.3,1.31-4.71,3.929-13.232
	c2.619-8.52,4.2-13.367,4.742-14.541c0.542-1.174,1.053-1.761,1.535-1.761l13.457,0.903c4.817,0.241,14.632,0.361,29.444,0.361
	c20.532,0,33.568-0.361,39.108-1.084c0.601-0.059,1.053-0.09,1.355-0.09c0.723,0,1.084,0.392,1.084,1.174
	c0,1.806-11.095,18.563-33.285,50.269C46.62,94.702,32.789,115.91,25.273,129.506c8.659,0.361,16.057,0.542,22.193,0.542
	c8.479,0,15.14-0.406,19.982-1.219c4.841-0.813,9.201-2.168,13.081-4.064c3.879-1.897,6.767-3.658,8.661-5.284
	c1.894-1.626,4.917-5.027,9.067-10.206c3.788-4.636,6.013-6.955,6.675-6.955c0.962,0,1.444,0.693,1.444,2.077L96.801,133.66z
	 M156.071,124.433c-2.471,3.58-5.42,6.264-8.847,8.053c-3.429,1.789-7.31,2.684-11.645,2.684c-5.092,0-9.087-1.361-11.985-4.084
	c-2.899-2.723-4.348-6.305-4.348-10.742c0-3.327,0.87-6.429,2.609-9.303c1.739-2.875,3.73-4.942,5.974-6.203
	c2.242-1.261,6.187-2.85,11.834-4.766c8.065-2.672,12.904-4.89,14.518-6.655c1.613-1.764,2.42-4.062,2.42-6.895
	c0-4.502-1.059-8.004-3.176-10.507c-2.117-2.504-5.117-3.756-8.998-3.756c-3.176,0-5.571,0.709-7.183,2.127
	c-1.614,1.469-2.849,4.329-3.705,8.581c-0.907,4.657-2.899,6.986-5.974,6.986c-1.109,0-2.332-0.554-3.667-1.664
	c-1.336-1.108-2.004-2.747-2.004-4.915c0-3.781,2.091-7.07,6.276-9.868c4.184-2.798,9.93-4.197,17.24-4.197
	c5.796,0,10.422,0.821,13.875,2.461c3.452,1.64,5.62,3.521,6.503,5.641c0.881,2.12,1.323,6.208,1.323,12.264l-0.454,19.988
	c0,7.722,0.466,13.211,1.399,16.467c0.932,3.256,2.658,4.883,5.18,4.883c0.503,0,1.21-0.076,2.117-0.227l1.285-0.151
	c1.159,0,1.739,0.422,1.739,1.263c0,1.931-4.966,2.896-14.896,2.896c-2.873,0-4.802-0.669-5.785-2.004
	C156.714,131.453,156.171,128.667,156.071,124.433z M156.6,108.554c0-4.083-0.177-8.62-0.529-13.611
	c-1.512,1.966-4.941,4.361-10.284,7.184c-5.293,2.722-9.1,5.319-11.418,7.788c-2.319,2.521-3.478,5.546-3.478,9.074
	c0,3.176,0.945,5.873,2.836,8.091c1.89,2.219,4.246,3.327,7.07,3.327c2.923,0,5.671-0.894,8.242-2.684
	c2.571-1.789,4.473-4.07,5.709-6.843C155.982,118.107,156.6,113.998,156.6,108.554L156.6,108.554z M204.238,69.46
	c0.252,2.168,0.378,4.134,0.378,5.898c0,1.512-0.126,3.705-0.378,6.579c4.991-4.738,8.809-7.8,11.456-9.187
	c2.647-1.386,5.607-2.079,8.885-2.079c7.762,0,14.379,3.189,19.849,9.565c5.469,6.378,8.204,13.876,8.204,22.496
	c0,9.327-3.126,16.951-9.376,22.874c-6.251,5.924-13.535,8.885-21.853,8.885c-5.747,0-11.469-1.688-17.165-5.066
	c-0.858,6.201-1.285,13.031-1.285,20.492c0,4.386,0.176,7.788,0.529,10.208l0.227,2.949c0.957,3.176,3.503,5.167,7.637,5.974
	c1.411,0.302,2.167,0.881,2.268,1.739l-0.227,0.756l-0.53,0.302c-6.215-0.353-11.091-0.529-14.628-0.529
	c-8.943,0-14.323,0.076-16.143,0.227c-1.163,0-1.743-0.429-1.743-1.286c0-0.807,0.503-1.261,1.512-1.361
	c4.688-0.505,7.624-1.563,8.809-3.176c1.184-1.614,1.94-8.76,2.268-21.437c0.327-12.678,0.492-20.605,0.492-23.781l-0.227-20.568
	l0.076-12.25c0-6.352-0.429-10.409-1.285-12.174c-0.858-1.764-3.051-2.772-6.579-3.025c-1.16-0.101-1.739-0.529-1.739-1.286
	c0-0.454,0.215-0.806,0.645-1.058c0.43-0.252,2.719-0.403,6.868-0.454L204.238,69.46z M203.633,103.109
	c0,9.225,0.227,15.123,0.681,17.694c0.454,2.571,2.079,4.966,4.877,7.184c2.798,2.219,6.465,3.327,11.002,3.327
	c6.15,0,11.089-2.634,14.821-7.902c3.73-5.267,5.596-11.707,5.596-19.32c0-8.67-1.903-15.615-5.709-20.832
	c-3.807-5.218-8.457-7.826-13.951-7.826c-5.344,0-9.565,2.219-12.666,6.654C205.183,86.525,203.633,93.532,203.633,103.109z
	 M301.257,124.433c-2.47,3.58-5.419,6.264-8.847,8.053c-3.429,1.789-7.31,2.684-11.645,2.684c-5.092,0-9.087-1.361-11.985-4.084
	c-2.899-2.723-4.348-6.305-4.348-10.742c0-3.327,0.87-6.429,2.609-9.303c1.739-2.875,3.73-4.942,5.974-6.203
	c2.242-1.261,6.187-2.85,11.834-4.766c8.065-2.672,12.904-4.89,14.518-6.655c1.613-1.764,2.42-4.062,2.42-6.895
	c0-4.502-1.059-8.004-3.176-10.507c-2.117-2.504-5.117-3.756-8.998-3.756c-3.176,0-5.571,0.709-7.183,2.127
	c-1.614,1.469-2.849,4.329-3.705,8.581c-0.907,4.657-2.899,6.986-5.974,6.986c-1.109,0-2.332-0.554-3.667-1.664
	c-1.336-1.108-2.004-2.747-2.004-4.915c0-3.781,2.091-7.07,6.276-9.868c4.184-2.798,9.93-4.197,17.24-4.197
	c5.796,0,10.422,0.821,13.875,2.461c3.452,1.64,5.62,3.521,6.503,5.641c0.881,2.12,1.323,6.208,1.323,12.264l-0.454,19.988
	c0,7.722,0.466,13.211,1.399,16.467c0.932,3.256,2.658,4.883,5.18,4.883c0.503,0,1.21-0.076,2.117-0.227l1.285-0.151
	c1.159,0,1.739,0.422,1.739,1.263c0,1.931-4.966,2.896-14.896,2.896c-2.873,0-4.802-0.669-5.785-2.004
	C301.9,131.453,301.358,128.667,301.257,124.433z M301.787,108.554c0-4.083-0.177-8.62-0.529-13.611
	c-1.512,1.966-4.941,4.361-10.284,7.184c-5.293,2.722-9.1,5.319-11.418,7.788c-2.319,2.521-3.478,5.546-3.478,9.074
	c0,3.176,0.945,5.873,2.836,8.091c1.89,2.219,4.246,3.327,7.07,3.327c2.923,0,5.671-0.894,8.242-2.684
	c2.571-1.789,4.473-4.07,5.709-6.843C301.169,118.107,301.787,113.998,301.787,108.554L301.787,108.554z M369.912,74.98
	c-2.622,0-9.225,0.378-19.811,1.134c-0.707,11.157-1.059,22.112-1.059,32.865c0,8.28,0.987,13.682,2.961,16.206
	c1.974,2.524,4.81,3.785,8.507,3.785c2.682,0,5.644-0.983,8.885-2.949c1.164-0.705,1.871-1.059,2.124-1.059
	c0.655,0,0.983,0.353,0.983,1.059c0,1.21-1.795,3.126-5.384,5.747c-3.589,2.621-7.987,3.932-13.194,3.932
	c-5.156,0-9.023-1.791-11.601-5.376c-2.578-3.584-3.867-8.933-3.867-16.051c0-7.42,0.454-20.139,1.361-38.159
	c-0.353-0.1-2.748-0.276-7.183-0.529l-4.537-0.302c-1.109-0.05-1.664-0.427-1.664-1.131c0-0.653,0.627-1.181,1.883-1.584
	c2.059-0.754,5.525-2.965,10.397-6.635c4.872-3.67,7.71-8.847,8.514-15.534c0.206-1.759,0.774-2.639,1.705-2.639
	c0.93,0,1.395,0.704,1.395,2.11c0,0.453-0.026,0.93-0.076,1.432c-0.151,1.959-0.227,4.22-0.227,6.782l0.076,11.756l16.56-0.227
	c2.823,0,4.284,0.329,4.386,0.983C370.995,72.914,370.617,74.375,369.912,74.98L369.912,74.98z M392.145,98.799
	c-0.203,2.571-0.304,4.613-0.304,6.125c0,7.159,2.109,13.208,6.328,18.148c4.218,4.941,9.434,7.41,15.649,7.41
	c6.062,0,11.696-2.42,16.899-7.259c1.515-1.361,2.475-2.042,2.881-2.042c0.808,0,1.237,0.656,1.288,1.966
	c-1.916,3.529-5.195,6.503-9.834,8.923c-4.64,2.42-9.809,3.629-15.506,3.629c-8.372,0-15.457-3.012-21.256-9.036
	c-5.799-6.023-8.698-13.649-8.698-22.874c0-9.88,3.188-18.122,9.565-24.726c6.376-6.603,13.195-9.906,20.454-9.906
	c6.805,0,12.955,2.584,18.45,7.751c5.494,5.168,8.242,11.229,8.242,18.186c0,1.059-0.164,1.841-0.493,2.344
	c-0.328,0.505-2.259,0.756-5.794,0.756L392.145,98.799z M392.145,94.867c6.568,0.302,12.934,0.454,19.099,0.454l4.017-0.227
	c3.032-0.1,5.356-0.692,6.972-1.777c1.616-1.083,2.426-2.987,2.426-5.709c0-4.235-1.453-7.927-4.359-11.078
	c-2.905-3.15-6.328-4.726-10.268-4.726c-3.639,0-7.264,1.803-10.877,5.407C395.542,80.815,393.206,86.701,392.145,94.867z
	 M465.946,69.989c0.352,2.726,0.73,8.177,1.134,16.353c3.176-5.652,6.566-9.893,10.17-12.719c3.604-2.826,7.397-4.239,11.38-4.239
	c2.772,0,5.167,0.996,7.183,2.987c2.016,1.992,3.025,4.248,3.025,6.768c0,4.79-2.042,7.184-6.125,7.184
	c-1.916,0-3.529-1.335-4.839-4.008c-1.614-3.377-3.756-5.066-6.427-5.066c-2.521,0-5.117,1.414-7.788,4.24
	c-2.673,2.827-4.461,5.919-5.369,9.276c-0.907,3.358-1.361,10.387-1.361,21.089c0,9.793,0.403,15.409,1.21,16.848
	c0.806,1.439,2.873,2.359,6.201,2.764c0.907,0.102,1.361,0.454,1.361,1.059c0,1.059-1.185,1.588-3.554,1.588h-24.121
	c-1.714,0-2.571-0.428-2.571-1.285c0-0.806,1.134-1.259,3.403-1.361c3.176-0.201,5.142-1.185,5.898-2.953
	c0.756-1.766,1.134-8.278,1.134-19.535c0-16.505-0.34-26.424-1.021-29.756c-0.681-3.332-3.214-5.098-7.599-5.3
	c-1.815-0.1-2.722-0.579-2.722-1.437c0-0.454,0.189-0.794,0.567-1.021c0.378-0.227,2.684-0.465,6.919-0.718L465.946,69.989
	L465.946,69.989z M528.328,69.158l-0.076,17.014l0.151,15.879v11.947l-0.076,9.074c0,3.63,0.592,5.936,1.777,6.919
	c1.184,0.983,2.961,1.525,5.331,1.626c2.772,0.151,4.159,0.731,4.159,1.739c0,0.806-0.529,1.21-1.588,1.21
	c-0.404,0-0.858-0.026-1.361-0.076c-4.688-0.605-9.049-0.907-13.081-0.907c-6.453,0-10.915,0.202-13.384,0.605
	c-0.505,0.1-1.009,0.151-1.512,0.151c-1.21,0-1.815-0.454-1.815-1.361s1.411-1.537,4.235-1.89c2.823-0.352,4.624-0.97,5.406-1.853
	c0.781-0.881,1.172-3.39,1.172-7.524l0.454-31.305c0-8.367-0.631-13.32-1.89-14.859c-1.261-1.537-3.705-2.356-7.335-2.458
	c-1.21,0-1.815-0.403-1.815-1.21c0-0.454,0.201-0.806,0.605-1.059c0.403-0.252,3.403-0.579,8.998-0.983
	C522.279,69.435,526.16,69.208,528.328,69.158z M512.147,63.108c0-0.454,0.705-1.664,2.117-3.63l11.645-16.333
	c2.268-3.176,4.095-5.343,5.482-6.503c1.386-1.159,2.961-1.739,4.726-1.739c3.225,0,4.839,1.588,4.839,4.764
	c0,2.571-2.47,5.722-7.41,9.452L515.701,62.73c-1.21,0.907-2.042,1.361-2.495,1.361C512.499,64.091,512.147,63.764,512.147,63.108
	L512.147,63.108z M586.174,124.433c-2.471,3.58-5.42,6.264-8.847,8.053c-3.429,1.789-7.31,2.684-11.645,2.684
	c-5.092,0-9.087-1.361-11.985-4.084c-2.899-2.723-4.348-6.305-4.348-10.742c0-3.327,0.87-6.429,2.609-9.303
	c1.739-2.875,3.73-4.942,5.974-6.203c2.242-1.261,6.188-2.85,11.834-4.766c8.065-2.673,12.904-4.89,14.518-6.655
	c1.613-1.764,2.42-4.062,2.42-6.895c0-4.502-1.059-8.003-3.176-10.507c-2.117-2.504-5.117-3.756-8.998-3.756
	c-3.176,0-5.571,0.709-7.183,2.127c-1.614,1.469-2.849,4.329-3.705,8.581c-0.907,4.657-2.899,6.986-5.974,6.986
	c-1.109,0-2.332-0.554-3.667-1.664c-1.336-1.108-2.004-2.747-2.004-4.915c0-3.781,2.091-7.07,6.276-9.868
	c4.184-2.798,9.93-4.197,17.24-4.197c5.796,0,10.422,0.821,13.875,2.461c3.452,1.64,5.62,3.521,6.503,5.64
	c0.881,2.12,1.323,6.208,1.323,12.264l-0.454,19.987c0,7.722,0.466,13.212,1.399,16.467c0.932,3.256,2.658,4.883,5.18,4.883
	c0.503,0,1.21-0.076,2.117-0.227l1.285-0.151c1.159,0,1.739,0.422,1.739,1.263c0,1.931-4.966,2.896-14.896,2.896
	c-2.873,0-4.802-0.669-5.785-2.004C586.817,131.453,586.275,128.667,586.174,124.433z M586.704,108.554
	c0-4.083-0.177-8.62-0.529-13.611c-1.512,1.966-4.941,4.361-10.284,7.184c-5.293,2.722-9.1,5.319-11.418,7.788
	c-2.319,2.521-3.478,5.546-3.478,9.074c0,3.176,0.945,5.873,2.836,8.091c1.89,2.219,4.246,3.327,7.07,3.327
	c2.923,0,5.671-0.894,8.242-2.684c2.571-1.789,4.473-4.07,5.709-6.843C586.086,118.107,586.704,113.998,586.704,108.554
	L586.704,108.554z"/>
<path fill="#FFFFFF" d="M146.791,60.29c-1.099,0.045-1.727,0.067-1.884,0.067c-0.83,0-2.333-0.039-4.508-0.118
	c-2.175-0.079-6.694-0.118-13.556-0.118H118.3c-0.314,0-1.458,0.056-3.431,0.168c-1.973,0.112-3.173,0.168-3.599,0.168
	c-1.705,0-2.556-0.224-2.556-0.672c0-0.358,0.336-0.549,1.008-0.571c2.173-0.134,3.685-0.6,4.537-1.396
	c0.851-0.796,1.434-1.939,1.748-3.43c0.313-1.491,0.471-5.521,0.471-12.091l0.034-12.04c0-3.901-0.174-6.626-0.521-8.172
	c-0.348-1.547-1.064-2.73-2.151-3.549c-1.087-0.818-2.314-1.283-3.68-1.396c-0.717-0.069-1.075-0.31-1.075-0.724
	c0-0.413,0.325-0.62,0.975-0.62c0.156,0,0.448,0.012,0.874,0.034c3.562,0.224,7.73,0.336,12.502,0.336l5.915-0.101
	c0.605,0,0.907,0.224,0.907,0.672c0,0.403-0.325,0.605-0.975,0.605c-1.591,0-2.919,0.314-3.983,0.941
	c-1.064,0.627-1.77,1.35-2.117,2.167c-0.348,0.818-0.521,2.414-0.521,4.789l-0.269,15.895l0.067,8.872
	c0,2.756,0.118,4.548,0.353,5.377c0.235,0.829,0.723,1.574,1.462,2.235c0.739,0.661,2.085,0.991,4.035,0.991
	c0.156,0,2.163-0.067,6.018-0.202c3.07-0.425,5.827-1.926,8.271-4.503c2.443-2.576,4.068-4.884,4.875-6.923
	c0.245-0.582,0.545-0.874,0.901-0.874c0.378,0,0.567,0.269,0.567,0.807c0,0.627-0.32,2.873-0.96,6.738
	C147.342,57.518,146.945,59.731,146.791,60.29z M169.141,55.821c-1.098,1.591-2.409,2.784-3.932,3.579
	c-1.524,0.795-3.249,1.193-5.176,1.193c-2.263,0-4.039-0.605-5.327-1.815c-1.289-1.21-1.932-2.802-1.932-4.774
	c0-1.479,0.386-2.857,1.159-4.135c0.773-1.278,1.658-2.196,2.655-2.757c0.997-0.56,2.75-1.266,5.26-2.118
	c3.585-1.188,5.735-2.173,6.453-2.958c0.717-0.784,1.075-1.805,1.075-3.064c0-2.001-0.471-3.557-1.412-4.67
	c-0.941-1.113-2.274-1.669-3.999-1.669c-1.412,0-2.476,0.315-3.193,0.945c-0.717,0.653-1.266,1.924-1.647,3.814
	c-0.403,2.07-1.289,3.105-2.655,3.105c-0.493,0-1.037-0.246-1.63-0.739c-0.594-0.492-0.891-1.221-0.891-2.184
	c0-1.68,0.929-3.142,2.789-4.386c1.859-1.243,4.414-1.865,7.663-1.865c2.576,0,4.632,0.365,6.167,1.094
	c1.534,0.729,2.498,1.565,2.89,2.507c0.392,0.942,0.588,2.759,0.588,5.45l-0.202,8.883c0,3.432,0.207,5.871,0.622,7.318
	c0.414,1.447,1.182,2.17,2.302,2.17c0.224,0,0.538-0.034,0.941-0.101l0.571-0.067c0.515,0,0.773,0.187,0.773,0.561
	c0,0.858-2.207,1.287-6.621,1.287c-1.277,0-2.134-0.297-2.571-0.891C169.427,58.941,169.186,57.703,169.141,55.821z M169.377,48.764
	c0-1.815-0.079-3.831-0.235-6.049c-0.672,0.874-2.196,1.938-4.571,3.193c-2.353,1.21-4.044,2.364-5.075,3.461
	c-1.031,1.121-1.546,2.465-1.546,4.033c0,1.411,0.42,2.61,1.26,3.596c0.84,0.986,1.887,1.479,3.142,1.479
	c1.299,0,2.521-0.398,3.663-1.193c1.143-0.795,1.988-1.809,2.537-3.041C169.102,53.01,169.377,51.183,169.377,48.764L169.377,48.764
	z"/>
</svg>
